# xmcd CD database file
#
# Track frame offsets:
#	150
#	28583
#	49916
#	64820
#	85676
#	108355
#	128248
#	143648
#	158857
#	177826
#	202087
#
# Disc length: 3096 seconds
#
# Revision: 0
# Processed by: cddbd v1.5.2PL0 Copyright (c) Steve Scherf et al.
# Submitted via: CDex 1.51
#
DISCID=950c160b
DTITLE=Various Artist - Soul Jazz Lounge
DYEAR=2007
DGENRE=Jazz
TTITLE0=Keep your soul together - Maceo Parker
TTITLE1=Light my fire - Shirley Bassey meets Booster
TTITLE2=Get there - Benny sings
TTITLE3=Munkaroo - Alice Russell
TTITLE4=Wiping out - Jimi tenor
TTITLE5=Monosabio blues - Gecko Turner
TTITLE6=Walkin´ through tomorrow - Quantic soul orchestra
TTITLE7=Why Me - Kinny and Horne
TTITLE8=Game for fools - Jamie Lidell
TTITLE9=Remember Me - Dajla
TTITLE10=I am You - Nightmares on wax
EXTD=YEAR: 2007
EXTT0=
EXTT1=
EXTT2=
EXTT3=
EXTT4=
EXTT5=
EXTT6=
EXTT7=
EXTT8=
EXTT9=
EXTT10=
PLAYORDER=
